<mxfile host="Electron" modified="2024-04-14T19:08:46.986Z" agent="Mozilla/5.0 (Windows NT 10.0; Win64; x64) AppleWebKit/537.36 (KHTML, like Gecko) draw.io/24.2.5 Chrome/120.0.6099.109 Electron/28.1.0 Safari/537.36" etag="WtsQRfkdFzfASDEamN9e" version="24.2.5" type="device">
  <diagram name="Страница — 1" id="oJsVUREKbfhEs7gWaOH-">
    <mxGraphModel dx="5250" dy="3105" grid="1" gridSize="20" guides="1" tooltips="1" connect="1" arrows="1" fold="1" page="1" pageScale="1" pageWidth="5000" pageHeight="3000" background="#FFFFFF" math="0" shadow="0">
      <root>
        <mxCell id="0" />
        <mxCell id="1" parent="0" />
        <mxCell id="RFGrQ3nGmAbZWkgR2eHo-1" value="&lt;h1 style=&quot;font-size: 30px;&quot;&gt;&lt;font style=&quot;font-size: 30px;&quot;&gt;&lt;span style=&quot;font-size: 30px;&quot;&gt;Происходит нажатие&lt;br&gt;&lt;/span&gt;&lt;/font&gt;на кнопку с class=&quot;grid-item&quot;&lt;/h1&gt;" style="rounded=1;whiteSpace=wrap;html=1;fillColor=#f5f5f5;fontColor=#333333;strokeColor=#666666;fontSize=30;fontFamily=Gost Type A;fontStyle=0;align=center;verticalAlign=middle;" parent="1" vertex="1">
          <mxGeometry x="709" y="308.5" width="360" height="120" as="geometry" />
        </mxCell>
        <mxCell id="RFGrQ3nGmAbZWkgR2eHo-2" value="" style="rounded=1;whiteSpace=wrap;html=1;fillColor=#fff2cc;strokeColor=#d6b656;verticalAlign=middle;fontFamily=Gost Type A;fontSize=30;align=center;" parent="1" vertex="1">
          <mxGeometry x="47" y="206.5" width="200" height="100" as="geometry" />
        </mxCell>
        <mxCell id="RFGrQ3nGmAbZWkgR2eHo-3" value="" style="rounded=1;whiteSpace=wrap;html=1;fillColor=#d5e8d4;strokeColor=#82b366;verticalAlign=middle;fontFamily=Gost Type A;fontSize=30;align=center;" parent="1" vertex="1">
          <mxGeometry x="47" y="366.5" width="200" height="100" as="geometry" />
        </mxCell>
        <mxCell id="RFGrQ3nGmAbZWkgR2eHo-4" value="Происходит вывов какой JavaScript функции" style="text;html=1;align=center;verticalAlign=middle;whiteSpace=wrap;rounded=0;fontFamily=Gost Type A;fontSize=30;" parent="1" vertex="1">
          <mxGeometry x="367" y="186.5" width="260" height="140" as="geometry" />
        </mxCell>
        <mxCell id="RFGrQ3nGmAbZWkgR2eHo-5" value="Происходит вызов какой Python функции/маршрута обработки запроса" style="text;html=1;align=center;verticalAlign=middle;whiteSpace=wrap;rounded=0;fontFamily=Gost Type A;fontSize=30;" parent="1" vertex="1">
          <mxGeometry x="367" y="346.5" width="260" height="140" as="geometry" />
        </mxCell>
        <mxCell id="RFGrQ3nGmAbZWkgR2eHo-6" value="" style="rounded=1;whiteSpace=wrap;html=1;fillColor=#f5f5f5;strokeColor=#666666;fontColor=#333333;verticalAlign=middle;fontFamily=Gost Type A;fontSize=30;align=center;" parent="1" vertex="1">
          <mxGeometry x="47" y="46.5" width="200" height="100" as="geometry" />
        </mxCell>
        <mxCell id="RFGrQ3nGmAbZWkgR2eHo-7" value="описание действий, произодимых пользователем" style="text;html=1;align=center;verticalAlign=middle;whiteSpace=wrap;rounded=0;fontFamily=Gost Type A;fontSize=30;" parent="1" vertex="1">
          <mxGeometry x="367" y="26.5" width="260" height="140" as="geometry" />
        </mxCell>
        <mxCell id="RFGrQ3nGmAbZWkgR2eHo-8" value="&lt;span style=&quot;color: rgb(0, 0, 0); font-size: 30px; font-style: normal; font-variant-ligatures: normal; font-variant-caps: normal; font-weight: 400; letter-spacing: normal; orphans: 2; text-indent: 0px; text-transform: none; widows: 2; word-spacing: 0px; -webkit-text-stroke-width: 0px; background-color: rgb(251, 251, 251); text-decoration-thickness: initial; text-decoration-style: initial; text-decoration-color: initial; float: none; display: inline !important;&quot;&gt;—&lt;span style=&quot;font-size: 30px;&quot;&gt;&amp;nbsp;&lt;/span&gt;&lt;/span&gt;" style="text;whiteSpace=wrap;html=1;verticalAlign=middle;fontFamily=Gost Type A;fontSize=30;align=center;" parent="1" vertex="1">
          <mxGeometry x="267" y="66.5" width="80" height="60" as="geometry" />
        </mxCell>
        <mxCell id="RFGrQ3nGmAbZWkgR2eHo-9" value="&lt;span style=&quot;color: rgb(0, 0, 0); font-size: 30px; font-style: normal; font-variant-ligatures: normal; font-variant-caps: normal; font-weight: 400; letter-spacing: normal; orphans: 2; text-indent: 0px; text-transform: none; widows: 2; word-spacing: 0px; -webkit-text-stroke-width: 0px; background-color: rgb(251, 251, 251); text-decoration-thickness: initial; text-decoration-style: initial; text-decoration-color: initial; float: none; display: inline !important;&quot;&gt;—&lt;span style=&quot;font-size: 30px;&quot;&gt;&amp;nbsp;&lt;/span&gt;&lt;/span&gt;" style="text;whiteSpace=wrap;html=1;verticalAlign=middle;fontFamily=Gost Type A;fontSize=30;align=center;" parent="1" vertex="1">
          <mxGeometry x="267" y="226.5" width="80" height="60" as="geometry" />
        </mxCell>
        <mxCell id="RFGrQ3nGmAbZWkgR2eHo-11" value="" style="endArrow=classic;html=1;rounded=0;fontSize=30;fontFamily=Gost Type A;fontStyle=0;exitX=0.5;exitY=1;exitDx=0;exitDy=0;entryX=0.5;entryY=0;entryDx=0;entryDy=0;align=center;verticalAlign=middle;" parent="1" source="RFGrQ3nGmAbZWkgR2eHo-1" target="RFGrQ3nGmAbZWkgR2eHo-12" edge="1">
          <mxGeometry width="50" height="50" relative="1" as="geometry">
            <mxPoint x="869" y="448.5" as="sourcePoint" />
            <mxPoint x="929" y="468.5" as="targetPoint" />
          </mxGeometry>
        </mxCell>
        <mxCell id="RFGrQ3nGmAbZWkgR2eHo-12" value="&lt;h1 style=&quot;font-size: 30px;&quot;&gt;highlightBlock&lt;br style=&quot;font-size: 30px;&quot;&gt;&lt;/h1&gt;" style="rounded=1;whiteSpace=wrap;html=1;fillColor=#fff2cc;strokeColor=#d6b656;fontSize=30;fontFamily=Gost Type A;fontStyle=0;align=center;verticalAlign=middle;" parent="1" vertex="1">
          <mxGeometry x="709" y="528.5" width="360" height="120" as="geometry" />
        </mxCell>
        <mxCell id="RFGrQ3nGmAbZWkgR2eHo-14" value="&lt;h1 style=&quot;font-size: 30px;&quot;&gt;getСurrentPageUrl&lt;br style=&quot;font-size: 30px;&quot;&gt;&lt;/h1&gt;" style="rounded=1;whiteSpace=wrap;html=1;fillColor=#fff2cc;strokeColor=#d6b656;fontSize=30;fontFamily=Gost Type A;fontStyle=0;align=center;verticalAlign=middle;" parent="1" vertex="1">
          <mxGeometry x="709" y="748.5" width="360" height="120" as="geometry" />
        </mxCell>
        <mxCell id="RFGrQ3nGmAbZWkgR2eHo-15" value="" style="rounded=1;whiteSpace=wrap;html=1;fillColor=#dae8fc;strokeColor=#6c8ebf;verticalAlign=middle;fontFamily=Gost Type A;fontSize=30;align=center;" parent="1" vertex="1">
          <mxGeometry x="47" y="526.5" width="200" height="100" as="geometry" />
        </mxCell>
        <mxCell id="RFGrQ3nGmAbZWkgR2eHo-16" value="описание вызываемой функций" style="text;html=1;align=center;verticalAlign=middle;whiteSpace=wrap;rounded=0;fontFamily=Gost Type A;fontSize=30;" parent="1" vertex="1">
          <mxGeometry x="367" y="506.5" width="260" height="140" as="geometry" />
        </mxCell>
        <mxCell id="RFGrQ3nGmAbZWkgR2eHo-18" value="&lt;h1 style=&quot;font-size: 30px;&quot;&gt;Функция для выделения выбранного блока&lt;br style=&quot;font-size: 30px;&quot;&gt;&lt;/h1&gt;" style="rounded=1;whiteSpace=wrap;html=1;fillColor=#dae8fc;strokeColor=#6c8ebf;fontSize=30;fontFamily=Gost Type A;fontStyle=0;align=center;verticalAlign=middle;" parent="1" vertex="1">
          <mxGeometry x="1089" y="528.5" width="360" height="120" as="geometry" />
        </mxCell>
        <mxCell id="RFGrQ3nGmAbZWkgR2eHo-19" value="&lt;h1 style=&quot;font-size: 30px;&quot;&gt;Функция получения ссылки на текущую страницу&lt;br style=&quot;font-size: 30px;&quot;&gt;&lt;/h1&gt;" style="rounded=1;whiteSpace=wrap;html=1;fillColor=#dae8fc;strokeColor=#6c8ebf;fontSize=30;fontFamily=Gost Type A;fontStyle=0;align=center;verticalAlign=middle;" parent="1" vertex="1">
          <mxGeometry x="1089" y="748.5" width="360" height="120" as="geometry" />
        </mxCell>
        <mxCell id="RFGrQ3nGmAbZWkgR2eHo-22" value="" style="endArrow=classic;html=1;rounded=0;fontSize=30;fontFamily=Gost Type A;fontStyle=0;exitX=0.5;exitY=1;exitDx=0;exitDy=0;entryX=0.5;entryY=0;entryDx=0;entryDy=0;align=center;verticalAlign=middle;" parent="1" source="RFGrQ3nGmAbZWkgR2eHo-14" target="RFGrQ3nGmAbZWkgR2eHo-23" edge="1">
          <mxGeometry width="50" height="50" relative="1" as="geometry">
            <mxPoint x="909" y="808.5" as="sourcePoint" />
            <mxPoint x="949" y="828.5" as="targetPoint" />
          </mxGeometry>
        </mxCell>
        <mxCell id="Eji0ntiIGjQTPZ46kR_g-1" style="edgeStyle=orthogonalEdgeStyle;rounded=0;orthogonalLoop=1;jettySize=auto;html=1;exitX=0.5;exitY=1;exitDx=0;exitDy=0;entryX=0.5;entryY=0;entryDx=0;entryDy=0;" parent="1" source="RFGrQ3nGmAbZWkgR2eHo-23" target="RFGrQ3nGmAbZWkgR2eHo-34" edge="1">
          <mxGeometry relative="1" as="geometry" />
        </mxCell>
        <mxCell id="1aSTl9h5QiMam2j-KgGQ-2" style="edgeStyle=orthogonalEdgeStyle;rounded=0;orthogonalLoop=1;jettySize=auto;html=1;exitX=0;exitY=0.25;exitDx=0;exitDy=0;entryX=1;entryY=0.25;entryDx=0;entryDy=0;" parent="1" source="RFGrQ3nGmAbZWkgR2eHo-23" target="1aSTl9h5QiMam2j-KgGQ-4" edge="1">
          <mxGeometry relative="1" as="geometry">
            <mxPoint x="409" y="998.5" as="targetPoint" />
          </mxGeometry>
        </mxCell>
        <mxCell id="RFGrQ3nGmAbZWkgR2eHo-23" value="&lt;h1 style=&quot;font-size: 30px;&quot;&gt;submitLineNumber&lt;br style=&quot;font-size: 30px;&quot;&gt;&lt;/h1&gt;" style="rounded=1;whiteSpace=wrap;html=1;fillColor=#fff2cc;strokeColor=#d6b656;fontSize=30;fontFamily=Gost Type A;fontStyle=0;align=center;verticalAlign=middle;" parent="1" vertex="1">
          <mxGeometry x="709" y="968.5" width="360" height="120" as="geometry" />
        </mxCell>
        <mxCell id="RFGrQ3nGmAbZWkgR2eHo-24" value="&lt;h1 style=&quot;font-size: 30px;&quot;&gt;Функция для отправки номера выбранного блока и адреса текущей страницы на сервер и возврата данных на страницу&lt;br style=&quot;font-size: 30px;&quot;&gt;&lt;/h1&gt;" style="rounded=1;whiteSpace=wrap;html=1;fillColor=#dae8fc;strokeColor=#6c8ebf;fontSize=30;fontFamily=Gost Type A;fontStyle=0;align=center;verticalAlign=middle;" parent="1" vertex="1">
          <mxGeometry x="1089" y="948.5" width="360" height="160" as="geometry" />
        </mxCell>
        <mxCell id="RFGrQ3nGmAbZWkgR2eHo-26" value="" style="endArrow=classic;html=1;rounded=0;exitX=0.5;exitY=1;exitDx=0;exitDy=0;entryX=0.5;entryY=0;entryDx=0;entryDy=0;align=center;verticalAlign=middle;" parent="1" source="RFGrQ3nGmAbZWkgR2eHo-12" target="RFGrQ3nGmAbZWkgR2eHo-14" edge="1">
          <mxGeometry width="50" height="50" relative="1" as="geometry">
            <mxPoint x="889" y="718.5" as="sourcePoint" />
            <mxPoint x="939" y="668.5" as="targetPoint" />
          </mxGeometry>
        </mxCell>
        <mxCell id="RFGrQ3nGmAbZWkgR2eHo-32" value="&lt;span style=&quot;color: rgb(0, 0, 0); font-size: 30px; font-style: normal; font-variant-ligatures: normal; font-variant-caps: normal; font-weight: 400; letter-spacing: normal; orphans: 2; text-indent: 0px; text-transform: none; widows: 2; word-spacing: 0px; -webkit-text-stroke-width: 0px; background-color: rgb(251, 251, 251); text-decoration-thickness: initial; text-decoration-style: initial; text-decoration-color: initial; float: none; display: inline !important;&quot;&gt;—&lt;span style=&quot;font-size: 30px;&quot;&gt;&amp;nbsp;&lt;/span&gt;&lt;/span&gt;" style="text;whiteSpace=wrap;html=1;verticalAlign=middle;fontFamily=Gost Type A;fontSize=30;align=center;" parent="1" vertex="1">
          <mxGeometry x="267" y="386.5" width="80" height="60" as="geometry" />
        </mxCell>
        <mxCell id="RFGrQ3nGmAbZWkgR2eHo-33" value="&lt;span style=&quot;color: rgb(0, 0, 0); font-size: 30px; font-style: normal; font-variant-ligatures: normal; font-variant-caps: normal; font-weight: 400; letter-spacing: normal; orphans: 2; text-indent: 0px; text-transform: none; widows: 2; word-spacing: 0px; -webkit-text-stroke-width: 0px; background-color: rgb(251, 251, 251); text-decoration-thickness: initial; text-decoration-style: initial; text-decoration-color: initial; float: none; display: inline !important;&quot;&gt;—&lt;span style=&quot;font-size: 30px;&quot;&gt;&amp;nbsp;&lt;/span&gt;&lt;/span&gt;" style="text;whiteSpace=wrap;html=1;verticalAlign=middle;fontFamily=Gost Type A;fontSize=30;align=center;" parent="1" vertex="1">
          <mxGeometry x="267" y="546.5" width="80" height="60" as="geometry" />
        </mxCell>
        <mxCell id="Eji0ntiIGjQTPZ46kR_g-4" style="edgeStyle=orthogonalEdgeStyle;rounded=0;orthogonalLoop=1;jettySize=auto;html=1;exitX=0.5;exitY=1;exitDx=0;exitDy=0;entryX=0.5;entryY=0;entryDx=0;entryDy=0;" parent="1" source="RFGrQ3nGmAbZWkgR2eHo-34" target="Eji0ntiIGjQTPZ46kR_g-2" edge="1">
          <mxGeometry relative="1" as="geometry" />
        </mxCell>
        <mxCell id="RFGrQ3nGmAbZWkgR2eHo-34" value="&lt;h1 style=&quot;font-size: 30px;&quot;&gt;displayBlockInfo&lt;br style=&quot;font-size: 30px;&quot;&gt;&lt;/h1&gt;" style="rounded=1;whiteSpace=wrap;html=1;fillColor=#fff2cc;strokeColor=#d6b656;fontSize=30;fontFamily=Gost Type A;fontStyle=0;align=center;verticalAlign=middle;" parent="1" vertex="1">
          <mxGeometry x="709" y="1188.5" width="360" height="120" as="geometry" />
        </mxCell>
        <mxCell id="RFGrQ3nGmAbZWkgR2eHo-35" value="&lt;h1 style=&quot;font-size: 30px;&quot;&gt;Функция для обновления информации о блоке&lt;br style=&quot;font-size: 30px;&quot;&gt;&lt;/h1&gt;" style="rounded=1;whiteSpace=wrap;html=1;fillColor=#dae8fc;strokeColor=#6c8ebf;fontSize=30;fontFamily=Gost Type A;fontStyle=0;align=center;verticalAlign=middle;" parent="1" vertex="1">
          <mxGeometry x="1089" y="1188.5" width="360" height="120" as="geometry" />
        </mxCell>
        <mxCell id="RFGrQ3nGmAbZWkgR2eHo-36" value="" style="endArrow=none;html=1;rounded=0;strokeWidth=5;" parent="1" edge="1">
          <mxGeometry width="50" height="50" relative="1" as="geometry">
            <mxPoint x="647" y="28.5" as="sourcePoint" />
            <mxPoint x="647" y="648.5" as="targetPoint" />
          </mxGeometry>
        </mxCell>
        <mxCell id="RFGrQ3nGmAbZWkgR2eHo-37" value="" style="endArrow=none;html=1;rounded=0;strokeWidth=5;" parent="1" edge="1">
          <mxGeometry width="50" height="50" relative="1" as="geometry">
            <mxPoint x="649" y="646.5" as="sourcePoint" />
            <mxPoint x="29" y="646.5" as="targetPoint" />
          </mxGeometry>
        </mxCell>
        <mxCell id="Eji0ntiIGjQTPZ46kR_g-7" style="edgeStyle=orthogonalEdgeStyle;rounded=0;orthogonalLoop=1;jettySize=auto;html=1;exitX=0.5;exitY=1;exitDx=0;exitDy=0;entryX=0.5;entryY=0;entryDx=0;entryDy=0;" parent="1" source="Eji0ntiIGjQTPZ46kR_g-2" target="Eji0ntiIGjQTPZ46kR_g-5" edge="1">
          <mxGeometry relative="1" as="geometry" />
        </mxCell>
        <mxCell id="Eji0ntiIGjQTPZ46kR_g-2" value="&lt;h1 style=&quot;font-size: 30px;&quot;&gt;generateBlockInfoHTML&lt;br style=&quot;font-size: 30px;&quot;&gt;&lt;/h1&gt;" style="rounded=1;whiteSpace=wrap;html=1;fillColor=#fff2cc;strokeColor=#d6b656;fontSize=30;fontFamily=Gost Type A;fontStyle=0;align=center;verticalAlign=middle;" parent="1" vertex="1">
          <mxGeometry x="709" y="1408.5" width="360" height="120" as="geometry" />
        </mxCell>
        <mxCell id="Eji0ntiIGjQTPZ46kR_g-3" value="&lt;h1 style=&quot;font-size: 30px;&quot;&gt;Генерирует HTML-разметку для информации о блоке на основе переданных данных&lt;br style=&quot;font-size: 30px;&quot;&gt;&lt;/h1&gt;" style="rounded=1;whiteSpace=wrap;html=1;fillColor=#dae8fc;strokeColor=#6c8ebf;fontSize=30;fontFamily=Gost Type A;fontStyle=0;align=center;verticalAlign=middle;" parent="1" vertex="1">
          <mxGeometry x="1089" y="1408.5" width="360" height="120" as="geometry" />
        </mxCell>
        <mxCell id="Eji0ntiIGjQTPZ46kR_g-10" style="edgeStyle=orthogonalEdgeStyle;rounded=0;orthogonalLoop=1;jettySize=auto;html=1;exitX=0.5;exitY=1;exitDx=0;exitDy=0;entryX=0.5;entryY=0;entryDx=0;entryDy=0;" parent="1" source="Eji0ntiIGjQTPZ46kR_g-5" target="Eji0ntiIGjQTPZ46kR_g-8" edge="1">
          <mxGeometry relative="1" as="geometry" />
        </mxCell>
        <mxCell id="Eji0ntiIGjQTPZ46kR_g-5" value="&lt;h1 style=&quot;font-size: 30px;&quot;&gt;updateBlockInfo&lt;br style=&quot;font-size: 30px;&quot;&gt;&lt;/h1&gt;" style="rounded=1;whiteSpace=wrap;html=1;fillColor=#fff2cc;strokeColor=#d6b656;fontSize=30;fontFamily=Gost Type A;fontStyle=0;align=center;verticalAlign=middle;" parent="1" vertex="1">
          <mxGeometry x="709" y="1628.5" width="360" height="120" as="geometry" />
        </mxCell>
        <mxCell id="Eji0ntiIGjQTPZ46kR_g-6" value="&lt;h1 style=&quot;font-size: 30px;&quot;&gt;Функция для обновления информации (что выбрана/выбран за ячейка/контейнер) о блоке на странице&lt;br style=&quot;font-size: 30px;&quot;&gt;&lt;/h1&gt;" style="rounded=1;whiteSpace=wrap;html=1;fillColor=#dae8fc;strokeColor=#6c8ebf;fontSize=30;fontFamily=Gost Type A;fontStyle=0;align=center;verticalAlign=middle;" parent="1" vertex="1">
          <mxGeometry x="1089" y="1608.5" width="360" height="160" as="geometry" />
        </mxCell>
        <mxCell id="Eji0ntiIGjQTPZ46kR_g-13" style="edgeStyle=orthogonalEdgeStyle;rounded=0;orthogonalLoop=1;jettySize=auto;html=1;exitX=0.5;exitY=1;exitDx=0;exitDy=0;entryX=0.5;entryY=0;entryDx=0;entryDy=0;" parent="1" source="Eji0ntiIGjQTPZ46kR_g-8" target="Eji0ntiIGjQTPZ46kR_g-11" edge="1">
          <mxGeometry relative="1" as="geometry" />
        </mxCell>
        <mxCell id="Eji0ntiIGjQTPZ46kR_g-8" value="&lt;h1 style=&quot;font-size: 30px;&quot;&gt;getCurrentBlockId&lt;br style=&quot;font-size: 30px;&quot;&gt;&lt;/h1&gt;" style="rounded=1;whiteSpace=wrap;html=1;fillColor=#fff2cc;strokeColor=#d6b656;fontSize=30;fontFamily=Gost Type A;fontStyle=0;align=center;verticalAlign=middle;" parent="1" vertex="1">
          <mxGeometry x="709" y="1848.5" width="360" height="120" as="geometry" />
        </mxCell>
        <mxCell id="Eji0ntiIGjQTPZ46kR_g-9" value="&lt;h1 style=&quot;border-color: var(--border-color); font-size: 30px;&quot;&gt;Функция получения текущего ID выбранного блока&lt;/h1&gt;" style="rounded=1;whiteSpace=wrap;html=1;fillColor=#dae8fc;strokeColor=#6c8ebf;fontSize=30;fontFamily=Gost Type A;fontStyle=0;align=center;verticalAlign=middle;" parent="1" vertex="1">
          <mxGeometry x="1089" y="1848.5" width="360" height="120" as="geometry" />
        </mxCell>
        <mxCell id="Eji0ntiIGjQTPZ46kR_g-11" value="&lt;h1 style=&quot;font-size: 30px;&quot;&gt;createButtons_Vzyat_Polozhit&lt;br style=&quot;font-size: 30px;&quot;&gt;&lt;/h1&gt;" style="rounded=1;whiteSpace=wrap;html=1;fillColor=#fff2cc;strokeColor=#d6b656;fontSize=30;fontFamily=Gost Type A;fontStyle=0;align=center;verticalAlign=middle;" parent="1" vertex="1">
          <mxGeometry x="709" y="2068.5" width="360" height="120" as="geometry" />
        </mxCell>
        <mxCell id="Eji0ntiIGjQTPZ46kR_g-12" value="&lt;h1 style=&quot;border-color: var(--border-color); font-size: 30px;&quot;&gt;Функция для создания кнопок &quot;Взять&quot; и &quot;Положить&quot; динамически&lt;/h1&gt;" style="rounded=1;whiteSpace=wrap;html=1;fillColor=#dae8fc;strokeColor=#6c8ebf;fontSize=30;fontFamily=Gost Type A;fontStyle=0;align=center;verticalAlign=middle;" parent="1" vertex="1">
          <mxGeometry x="1089" y="2068.5" width="360" height="120" as="geometry" />
        </mxCell>
        <mxCell id="Eji0ntiIGjQTPZ46kR_g-17" style="edgeStyle=orthogonalEdgeStyle;rounded=0;orthogonalLoop=1;jettySize=auto;html=1;exitX=0.5;exitY=1;exitDx=0;exitDy=0;entryX=0.5;entryY=0;entryDx=0;entryDy=0;" parent="1" source="Eji0ntiIGjQTPZ46kR_g-14" target="Eji0ntiIGjQTPZ46kR_g-15" edge="1">
          <mxGeometry relative="1" as="geometry" />
        </mxCell>
        <mxCell id="Eji0ntiIGjQTPZ46kR_g-14" value="&lt;h1 style=&quot;font-size: 30px;&quot;&gt;Происходит нажатие на кнопку&lt;br&gt;с class=&quot;dynamic-button&quot;&lt;br&gt;&lt;/h1&gt;" style="rounded=1;whiteSpace=wrap;html=1;fillColor=#f5f5f5;fontColor=#333333;strokeColor=#666666;fontSize=30;fontFamily=Gost Type A;fontStyle=0;align=center;verticalAlign=middle;" parent="1" vertex="1">
          <mxGeometry x="1569" y="308.5" width="360" height="120" as="geometry" />
        </mxCell>
        <mxCell id="Eji0ntiIGjQTPZ46kR_g-20" style="edgeStyle=orthogonalEdgeStyle;rounded=0;orthogonalLoop=1;jettySize=auto;html=1;exitX=0.5;exitY=1;exitDx=0;exitDy=0;entryX=0.5;entryY=0;entryDx=0;entryDy=0;" parent="1" source="Eji0ntiIGjQTPZ46kR_g-15" target="Eji0ntiIGjQTPZ46kR_g-18" edge="1">
          <mxGeometry relative="1" as="geometry" />
        </mxCell>
        <mxCell id="Eji0ntiIGjQTPZ46kR_g-15" value="&lt;h1 style=&quot;font-size: 30px;&quot;&gt;createDynamicElements&lt;br style=&quot;font-size: 30px;&quot;&gt;&lt;/h1&gt;" style="rounded=1;whiteSpace=wrap;html=1;fillColor=#fff2cc;strokeColor=#d6b656;fontSize=30;fontFamily=Gost Type A;fontStyle=0;align=center;verticalAlign=middle;" parent="1" vertex="1">
          <mxGeometry x="1569" y="528.5" width="360" height="120" as="geometry" />
        </mxCell>
        <mxCell id="Eji0ntiIGjQTPZ46kR_g-16" value="&lt;h1 style=&quot;font-size: 30px;&quot;&gt;Функция для создания кнопок, полей ввода и других элементов динамически&lt;br style=&quot;font-size: 30px;&quot;&gt;&lt;/h1&gt;" style="rounded=1;whiteSpace=wrap;html=1;fillColor=#dae8fc;strokeColor=#6c8ebf;fontSize=30;fontFamily=Gost Type A;fontStyle=0;align=center;verticalAlign=middle;" parent="1" vertex="1">
          <mxGeometry x="1949" y="528.5" width="360" height="120" as="geometry" />
        </mxCell>
        <mxCell id="Eji0ntiIGjQTPZ46kR_g-23" style="edgeStyle=orthogonalEdgeStyle;rounded=0;orthogonalLoop=1;jettySize=auto;html=1;exitX=0.5;exitY=1;exitDx=0;exitDy=0;entryX=0.5;entryY=0;entryDx=0;entryDy=0;" parent="1" source="Eji0ntiIGjQTPZ46kR_g-18" target="Eji0ntiIGjQTPZ46kR_g-21" edge="1">
          <mxGeometry relative="1" as="geometry" />
        </mxCell>
        <mxCell id="Eji0ntiIGjQTPZ46kR_g-18" value="&lt;h1 style=&quot;font-size: 30px;&quot;&gt;showQuantityInput&lt;br style=&quot;font-size: 30px;&quot;&gt;&lt;/h1&gt;" style="rounded=1;whiteSpace=wrap;html=1;fillColor=#fff2cc;strokeColor=#d6b656;fontSize=30;fontFamily=Gost Type A;fontStyle=0;align=center;verticalAlign=middle;" parent="1" vertex="1">
          <mxGeometry x="1569" y="748.5" width="360" height="120" as="geometry" />
        </mxCell>
        <mxCell id="Eji0ntiIGjQTPZ46kR_g-19" value="&lt;h1 style=&quot;font-size: 30px;&quot;&gt;Функция для отображения поля ввода количества&lt;br style=&quot;font-size: 30px;&quot;&gt;&lt;/h1&gt;" style="rounded=1;whiteSpace=wrap;html=1;fillColor=#dae8fc;strokeColor=#6c8ebf;fontSize=30;fontFamily=Gost Type A;fontStyle=0;align=center;verticalAlign=middle;" parent="1" vertex="1">
          <mxGeometry x="1949" y="748.5" width="360" height="120" as="geometry" />
        </mxCell>
        <mxCell id="Eji0ntiIGjQTPZ46kR_g-21" value="&lt;h1 style=&quot;font-size: 30px;&quot;&gt;fadeIn&lt;br style=&quot;font-size: 30px;&quot;&gt;&lt;/h1&gt;" style="rounded=1;whiteSpace=wrap;html=1;fillColor=#fff2cc;strokeColor=#d6b656;fontSize=30;fontFamily=Gost Type A;fontStyle=0;align=center;verticalAlign=middle;" parent="1" vertex="1">
          <mxGeometry x="1569" y="968.5" width="360" height="120" as="geometry" />
        </mxCell>
        <mxCell id="Eji0ntiIGjQTPZ46kR_g-22" value="&lt;h1 style=&quot;font-size: 30px;&quot;&gt;Функция для плавного появления поля ввода&lt;br style=&quot;font-size: 30px;&quot;&gt;&lt;/h1&gt;" style="rounded=1;whiteSpace=wrap;html=1;fillColor=#dae8fc;strokeColor=#6c8ebf;fontSize=30;fontFamily=Gost Type A;fontStyle=0;align=center;verticalAlign=middle;" parent="1" vertex="1">
          <mxGeometry x="1949" y="968.5" width="360" height="120" as="geometry" />
        </mxCell>
        <mxCell id="frULpJXyhYywBHncMrK_-4" style="edgeStyle=orthogonalEdgeStyle;rounded=0;orthogonalLoop=1;jettySize=auto;html=1;exitX=0.5;exitY=1;exitDx=0;exitDy=0;" parent="1" source="frULpJXyhYywBHncMrK_-1" target="frULpJXyhYywBHncMrK_-2" edge="1">
          <mxGeometry relative="1" as="geometry" />
        </mxCell>
        <mxCell id="frULpJXyhYywBHncMrK_-1" value="&lt;h1 style=&quot;font-size: 30px;&quot;&gt;Происходит нажатие на кнопку&lt;br&gt;с id=&quot;btn-confirm&quot;&lt;br&gt;&lt;/h1&gt;" style="rounded=1;whiteSpace=wrap;html=1;fillColor=#f5f5f5;fontColor=#333333;strokeColor=#666666;fontSize=30;fontFamily=Gost Type A;fontStyle=0;align=center;verticalAlign=middle;" parent="1" vertex="1">
          <mxGeometry x="2429" y="308.5" width="360" height="120" as="geometry" />
        </mxCell>
        <mxCell id="frULpJXyhYywBHncMrK_-12" style="edgeStyle=orthogonalEdgeStyle;rounded=0;orthogonalLoop=1;jettySize=auto;html=1;exitX=0.5;exitY=1;exitDx=0;exitDy=0;entryX=0.5;entryY=0;entryDx=0;entryDy=0;" parent="1" source="frULpJXyhYywBHncMrK_-2" target="frULpJXyhYywBHncMrK_-8" edge="1">
          <mxGeometry relative="1" as="geometry" />
        </mxCell>
        <mxCell id="frULpJXyhYywBHncMrK_-2" value="&lt;h1 style=&quot;font-size: 30px;&quot;&gt;performAction_Vzyat_Polozhit&lt;br style=&quot;font-size: 30px;&quot;&gt;&lt;/h1&gt;" style="rounded=1;whiteSpace=wrap;html=1;fillColor=#fff2cc;strokeColor=#d6b656;fontSize=30;fontFamily=Gost Type A;fontStyle=0;align=center;verticalAlign=middle;" parent="1" vertex="1">
          <mxGeometry x="2429" y="528.5" width="360" height="120" as="geometry" />
        </mxCell>
        <mxCell id="frULpJXyhYywBHncMrK_-3" value="&lt;h1 style=&quot;font-size: 30px;&quot;&gt;Функция для выполнения действия в зависимости от выбора &quot;Взять&quot; или &quot;Положить&quot;&lt;br style=&quot;font-size: 30px;&quot;&gt;&lt;/h1&gt;" style="rounded=1;whiteSpace=wrap;html=1;fillColor=#dae8fc;strokeColor=#6c8ebf;fontSize=30;fontFamily=Gost Type A;fontStyle=0;align=center;verticalAlign=middle;" parent="1" vertex="1">
          <mxGeometry x="2809" y="528.5" width="360" height="120" as="geometry" />
        </mxCell>
        <mxCell id="frULpJXyhYywBHncMrK_-13" style="edgeStyle=orthogonalEdgeStyle;rounded=0;orthogonalLoop=1;jettySize=auto;html=1;exitX=0.5;exitY=1;exitDx=0;exitDy=0;entryX=0.5;entryY=0;entryDx=0;entryDy=0;" parent="1" source="frULpJXyhYywBHncMrK_-8" target="frULpJXyhYywBHncMrK_-10" edge="1">
          <mxGeometry relative="1" as="geometry" />
        </mxCell>
        <mxCell id="frULpJXyhYywBHncMrK_-8" value="&lt;h1 style=&quot;font-size: 30px;&quot;&gt;getСurrentPageUrl&lt;br style=&quot;font-size: 30px;&quot;&gt;&lt;/h1&gt;" style="rounded=1;whiteSpace=wrap;html=1;fillColor=#fff2cc;strokeColor=#d6b656;fontSize=30;fontFamily=Gost Type A;fontStyle=0;align=center;verticalAlign=middle;" parent="1" vertex="1">
          <mxGeometry x="2429" y="748.5" width="360" height="120" as="geometry" />
        </mxCell>
        <mxCell id="frULpJXyhYywBHncMrK_-9" value="&lt;h1 style=&quot;font-size: 30px;&quot;&gt;Функция получения ссылки на текущую страницу&lt;br style=&quot;font-size: 30px;&quot;&gt;&lt;/h1&gt;" style="rounded=1;whiteSpace=wrap;html=1;fillColor=#dae8fc;strokeColor=#6c8ebf;fontSize=30;fontFamily=Gost Type A;fontStyle=0;align=center;verticalAlign=middle;" parent="1" vertex="1">
          <mxGeometry x="2809" y="748.5" width="360" height="120" as="geometry" />
        </mxCell>
        <mxCell id="frULpJXyhYywBHncMrK_-16" style="edgeStyle=orthogonalEdgeStyle;rounded=0;orthogonalLoop=1;jettySize=auto;html=1;exitX=0.5;exitY=1;exitDx=0;exitDy=0;entryX=0.5;entryY=0;entryDx=0;entryDy=0;" parent="1" source="frULpJXyhYywBHncMrK_-10" target="frULpJXyhYywBHncMrK_-14" edge="1">
          <mxGeometry relative="1" as="geometry" />
        </mxCell>
        <mxCell id="frULpJXyhYywBHncMrK_-10" value="&lt;h1 style=&quot;font-size: 30px;&quot;&gt;getCurrentBlockId&lt;br style=&quot;font-size: 30px;&quot;&gt;&lt;/h1&gt;" style="rounded=1;whiteSpace=wrap;html=1;fillColor=#fff2cc;strokeColor=#d6b656;fontSize=30;fontFamily=Gost Type A;fontStyle=0;align=center;verticalAlign=middle;" parent="1" vertex="1">
          <mxGeometry x="2429" y="968.5" width="360" height="120" as="geometry" />
        </mxCell>
        <mxCell id="frULpJXyhYywBHncMrK_-11" value="&lt;h1 style=&quot;border-color: var(--border-color); font-size: 30px;&quot;&gt;Функция получения текущего ID выбранного блока&lt;/h1&gt;" style="rounded=1;whiteSpace=wrap;html=1;fillColor=#dae8fc;strokeColor=#6c8ebf;fontSize=30;fontFamily=Gost Type A;fontStyle=0;align=center;verticalAlign=middle;" parent="1" vertex="1">
          <mxGeometry x="2809" y="968.5" width="360" height="120" as="geometry" />
        </mxCell>
        <mxCell id="frULpJXyhYywBHncMrK_-22" style="edgeStyle=orthogonalEdgeStyle;rounded=0;orthogonalLoop=1;jettySize=auto;html=1;exitX=0.5;exitY=1;exitDx=0;exitDy=0;entryX=0.5;entryY=0;entryDx=0;entryDy=0;" parent="1" source="frULpJXyhYywBHncMrK_-14" target="frULpJXyhYywBHncMrK_-18" edge="1">
          <mxGeometry relative="1" as="geometry" />
        </mxCell>
        <mxCell id="frULpJXyhYywBHncMrK_-14" value="&lt;h1 style=&quot;font-size: 30px;&quot;&gt;submitcheck&lt;br style=&quot;font-size: 30px;&quot;&gt;&lt;/h1&gt;" style="rounded=1;whiteSpace=wrap;html=1;fillColor=#fff2cc;strokeColor=#d6b656;fontSize=30;fontFamily=Gost Type A;fontStyle=0;align=center;verticalAlign=middle;" parent="1" vertex="1">
          <mxGeometry x="2429" y="1193.5" width="360" height="120" as="geometry" />
        </mxCell>
        <mxCell id="frULpJXyhYywBHncMrK_-17" value="&lt;h1 style=&quot;font-size: 30px;&quot;&gt;Функция для отправки данных о выбранном блоке и адреса текущей страницы на сервер и возврата данных на страницу&lt;br style=&quot;font-size: 30px;&quot;&gt;&lt;/h1&gt;" style="rounded=1;whiteSpace=wrap;html=1;fillColor=#dae8fc;strokeColor=#6c8ebf;fontSize=30;fontFamily=Gost Type A;fontStyle=0;align=center;verticalAlign=middle;" parent="1" vertex="1">
          <mxGeometry x="2809" y="1173.5" width="360" height="160" as="geometry" />
        </mxCell>
        <mxCell id="frULpJXyhYywBHncMrK_-23" style="edgeStyle=orthogonalEdgeStyle;rounded=0;orthogonalLoop=1;jettySize=auto;html=1;exitX=0.5;exitY=1;exitDx=0;exitDy=0;entryX=0.5;entryY=0;entryDx=0;entryDy=0;" parent="1" source="frULpJXyhYywBHncMrK_-18" target="frULpJXyhYywBHncMrK_-20" edge="1">
          <mxGeometry relative="1" as="geometry" />
        </mxCell>
        <mxCell id="frULpJXyhYywBHncMrK_-18" value="&lt;h1 style=&quot;font-size: 30px;&quot;&gt;displayBlockInfo&lt;br style=&quot;font-size: 30px;&quot;&gt;&lt;/h1&gt;" style="rounded=1;whiteSpace=wrap;html=1;fillColor=#fff2cc;strokeColor=#d6b656;fontSize=30;fontFamily=Gost Type A;fontStyle=0;align=center;verticalAlign=middle;" parent="1" vertex="1">
          <mxGeometry x="2429" y="1413.5" width="360" height="120" as="geometry" />
        </mxCell>
        <mxCell id="frULpJXyhYywBHncMrK_-19" value="&lt;h1 style=&quot;font-size: 30px;&quot;&gt;Функция для обновления информации о блоке&lt;br style=&quot;font-size: 30px;&quot;&gt;&lt;/h1&gt;" style="rounded=1;whiteSpace=wrap;html=1;fillColor=#dae8fc;strokeColor=#6c8ebf;fontSize=30;fontFamily=Gost Type A;fontStyle=0;align=center;verticalAlign=middle;" parent="1" vertex="1">
          <mxGeometry x="2809" y="1413.5" width="360" height="120" as="geometry" />
        </mxCell>
        <mxCell id="frULpJXyhYywBHncMrK_-26" style="edgeStyle=orthogonalEdgeStyle;rounded=0;orthogonalLoop=1;jettySize=auto;html=1;exitX=0.5;exitY=1;exitDx=0;exitDy=0;entryX=0.5;entryY=0;entryDx=0;entryDy=0;" parent="1" source="frULpJXyhYywBHncMrK_-20" target="frULpJXyhYywBHncMrK_-24" edge="1">
          <mxGeometry relative="1" as="geometry" />
        </mxCell>
        <mxCell id="frULpJXyhYywBHncMrK_-20" value="&lt;h1 style=&quot;font-size: 30px;&quot;&gt;generateBlockInfoHTML&lt;br style=&quot;font-size: 30px;&quot;&gt;&lt;/h1&gt;" style="rounded=1;whiteSpace=wrap;html=1;fillColor=#fff2cc;strokeColor=#d6b656;fontSize=30;fontFamily=Gost Type A;fontStyle=0;align=center;verticalAlign=middle;" parent="1" vertex="1">
          <mxGeometry x="2429" y="1633.5" width="360" height="120" as="geometry" />
        </mxCell>
        <mxCell id="frULpJXyhYywBHncMrK_-21" value="&lt;h1 style=&quot;font-size: 30px;&quot;&gt;Генерирует HTML-разметку для информации о блоке на основе переданных данных&lt;br style=&quot;font-size: 30px;&quot;&gt;&lt;/h1&gt;" style="rounded=1;whiteSpace=wrap;html=1;fillColor=#dae8fc;strokeColor=#6c8ebf;fontSize=30;fontFamily=Gost Type A;fontStyle=0;align=center;verticalAlign=middle;" parent="1" vertex="1">
          <mxGeometry x="2809" y="1633.5" width="360" height="120" as="geometry" />
        </mxCell>
        <mxCell id="frULpJXyhYywBHncMrK_-24" value="&lt;h1 style=&quot;font-size: 30px;&quot;&gt;fadeOut&lt;br style=&quot;font-size: 30px;&quot;&gt;&lt;/h1&gt;" style="rounded=1;whiteSpace=wrap;html=1;fillColor=#fff2cc;strokeColor=#d6b656;fontSize=30;fontFamily=Gost Type A;fontStyle=0;align=center;verticalAlign=middle;" parent="1" vertex="1">
          <mxGeometry x="2429" y="1853.5" width="360" height="120" as="geometry" />
        </mxCell>
        <mxCell id="frULpJXyhYywBHncMrK_-25" value="&lt;h1 style=&quot;font-size: 30px;&quot;&gt;Функция для плавного исчезновения поля ввода&lt;br style=&quot;font-size: 30px;&quot;&gt;&lt;/h1&gt;" style="rounded=1;whiteSpace=wrap;html=1;fillColor=#dae8fc;strokeColor=#6c8ebf;fontSize=30;fontFamily=Gost Type A;fontStyle=0;align=center;verticalAlign=middle;" parent="1" vertex="1">
          <mxGeometry x="2809" y="1853.5" width="360" height="120" as="geometry" />
        </mxCell>
        <mxCell id="1aSTl9h5QiMam2j-KgGQ-13" style="edgeStyle=orthogonalEdgeStyle;rounded=0;orthogonalLoop=1;jettySize=auto;html=1;exitX=0.75;exitY=1;exitDx=0;exitDy=0;entryX=0.75;entryY=0;entryDx=0;entryDy=0;" parent="1" source="1aSTl9h5QiMam2j-KgGQ-4" target="1aSTl9h5QiMam2j-KgGQ-7" edge="1">
          <mxGeometry relative="1" as="geometry" />
        </mxCell>
        <mxCell id="1aSTl9h5QiMam2j-KgGQ-15" value="&lt;font style=&quot;font-size: 13px;&quot;&gt;Если поступило на&lt;br&gt;сервер и&amp;nbsp;page_url,&lt;br&gt;и&amp;nbsp;block_number&lt;/font&gt;" style="edgeLabel;html=1;align=center;verticalAlign=middle;resizable=0;points=[];" parent="1aSTl9h5QiMam2j-KgGQ-13" vertex="1" connectable="0">
          <mxGeometry x="-0.0042" y="2" relative="1" as="geometry">
            <mxPoint y="-119" as="offset" />
          </mxGeometry>
        </mxCell>
        <mxCell id="1aSTl9h5QiMam2j-KgGQ-4" value="&lt;h1 style=&quot;font-size: 30px;&quot;&gt;receiving_data_from_server&lt;br style=&quot;font-size: 30px;&quot;&gt;&lt;/h1&gt;" style="rounded=1;whiteSpace=wrap;html=1;fillColor=#d5e8d4;strokeColor=#82b366;fontSize=30;fontFamily=Gost Type A;fontStyle=0;align=center;verticalAlign=middle;" parent="1" vertex="1">
          <mxGeometry x="49" y="968.5" width="360" height="120" as="geometry" />
        </mxCell>
        <mxCell id="1aSTl9h5QiMam2j-KgGQ-6" value="&lt;h1 style=&quot;font-size: 30px;&quot;&gt;process_page_url&lt;br style=&quot;font-size: 30px;&quot;&gt;&lt;/h1&gt;" style="rounded=1;whiteSpace=wrap;html=1;fillColor=#d5e8d4;strokeColor=#82b366;fontSize=30;fontFamily=Gost Type A;fontStyle=0;align=center;verticalAlign=middle;" parent="1" vertex="1">
          <mxGeometry x="49" y="1188.5" width="220" height="120" as="geometry" />
        </mxCell>
        <mxCell id="1aSTl9h5QiMam2j-KgGQ-21" style="edgeStyle=orthogonalEdgeStyle;rounded=0;orthogonalLoop=1;jettySize=auto;html=1;exitX=0.5;exitY=1;exitDx=0;exitDy=0;entryX=0.5;entryY=0;entryDx=0;entryDy=0;" parent="1" source="1aSTl9h5QiMam2j-KgGQ-7" target="1aSTl9h5QiMam2j-KgGQ-16" edge="1">
          <mxGeometry relative="1" as="geometry" />
        </mxCell>
        <mxCell id="1aSTl9h5QiMam2j-KgGQ-7" value="&lt;h1 style=&quot;font-size: 30px;&quot;&gt;over_zapusk_read_csv&lt;br style=&quot;font-size: 30px;&quot;&gt;&lt;/h1&gt;" style="rounded=1;whiteSpace=wrap;html=1;fillColor=#d5e8d4;strokeColor=#82b366;fontSize=30;fontFamily=Gost Type A;fontStyle=0;align=center;verticalAlign=middle;" parent="1" vertex="1">
          <mxGeometry x="49" y="1408.5" width="360" height="120" as="geometry" />
        </mxCell>
        <mxCell id="1aSTl9h5QiMam2j-KgGQ-10" value="" style="curved=1;endArrow=classic;html=1;rounded=0;exitX=0.306;exitY=1;exitDx=0;exitDy=0;entryX=0.5;entryY=0;entryDx=0;entryDy=0;exitPerimeter=0;" parent="1" source="1aSTl9h5QiMam2j-KgGQ-4" target="1aSTl9h5QiMam2j-KgGQ-6" edge="1">
          <mxGeometry width="50" height="50" relative="1" as="geometry">
            <mxPoint x="429" y="1278.5" as="sourcePoint" />
            <mxPoint x="479" y="1228.5" as="targetPoint" />
            <Array as="points" />
          </mxGeometry>
        </mxCell>
        <mxCell id="1aSTl9h5QiMam2j-KgGQ-14" value="Если&amp;nbsp;&amp;nbsp;page_url поступило&lt;br style=&quot;font-size: 13px;&quot;&gt;на сервер (не поступает,&lt;br style=&quot;font-size: 13px;&quot;&gt;если запрос приходит со&lt;br style=&quot;font-size: 13px;&quot;&gt;страницы page3)" style="edgeLabel;html=1;align=center;verticalAlign=middle;resizable=0;points=[];fontStyle=2;fontSize=13;" parent="1aSTl9h5QiMam2j-KgGQ-10" vertex="1" connectable="0">
          <mxGeometry x="-0.1371" y="-2" relative="1" as="geometry">
            <mxPoint as="offset" />
          </mxGeometry>
        </mxCell>
        <mxCell id="1aSTl9h5QiMam2j-KgGQ-12" value="" style="curved=1;endArrow=classic;html=1;rounded=0;exitX=0.499;exitY=0.983;exitDx=0;exitDy=0;exitPerimeter=0;" parent="1" source="1aSTl9h5QiMam2j-KgGQ-6" edge="1">
          <mxGeometry width="50" height="50" relative="1" as="geometry">
            <mxPoint x="158.52" y="1308.5" as="sourcePoint" />
            <mxPoint x="159" y="1408.5" as="targetPoint" />
            <Array as="points" />
          </mxGeometry>
        </mxCell>
        <mxCell id="1aSTl9h5QiMam2j-KgGQ-22" style="edgeStyle=orthogonalEdgeStyle;rounded=0;orthogonalLoop=1;jettySize=auto;html=1;exitX=0.5;exitY=1;exitDx=0;exitDy=0;entryX=0.5;entryY=0;entryDx=0;entryDy=0;" parent="1" source="1aSTl9h5QiMam2j-KgGQ-16" target="1aSTl9h5QiMam2j-KgGQ-17" edge="1">
          <mxGeometry relative="1" as="geometry" />
        </mxCell>
        <mxCell id="1aSTl9h5QiMam2j-KgGQ-16" value="&lt;h1 style=&quot;font-size: 30px;&quot;&gt;zapusk_read_csv&lt;br style=&quot;font-size: 30px;&quot;&gt;&lt;/h1&gt;" style="rounded=1;whiteSpace=wrap;html=1;fillColor=#d5e8d4;strokeColor=#82b366;fontSize=30;fontFamily=Gost Type A;fontStyle=0;align=center;verticalAlign=middle;" parent="1" vertex="1">
          <mxGeometry x="49" y="1628.5" width="360" height="120" as="geometry" />
        </mxCell>
        <mxCell id="1aSTl9h5QiMam2j-KgGQ-17" value="&lt;h1 style=&quot;font-size: 30px;&quot;&gt;read_csv&lt;br style=&quot;font-size: 30px;&quot;&gt;&lt;/h1&gt;" style="rounded=1;whiteSpace=wrap;html=1;fillColor=#d5e8d4;strokeColor=#82b366;fontSize=30;fontFamily=Gost Type A;fontStyle=0;align=center;verticalAlign=middle;" parent="1" vertex="1">
          <mxGeometry x="49" y="1848.5" width="360" height="120" as="geometry" />
        </mxCell>
        <mxCell id="1aSTl9h5QiMam2j-KgGQ-20" style="edgeStyle=orthogonalEdgeStyle;rounded=0;orthogonalLoop=1;jettySize=auto;html=1;exitX=0;exitY=0.5;exitDx=0;exitDy=0;" parent="1" source="1aSTl9h5QiMam2j-KgGQ-18" edge="1">
          <mxGeometry relative="1" as="geometry">
            <mxPoint x="329" y="1248.2575757575758" as="targetPoint" />
          </mxGeometry>
        </mxCell>
        <mxCell id="1aSTl9h5QiMam2j-KgGQ-18" value="&lt;h1 style=&quot;font-size: 30px;&quot;&gt;Функция для обработки ссылки на страницу&lt;br style=&quot;font-size: 30px;&quot;&gt;&lt;/h1&gt;" style="rounded=1;whiteSpace=wrap;html=1;fillColor=#f5f5f5;strokeColor=#666666;fontSize=30;fontFamily=Gost Type A;fontStyle=0;align=center;verticalAlign=middle;fontColor=#333333;" parent="1" vertex="1">
          <mxGeometry x="389" y="1188.5" width="220" height="120" as="geometry" />
        </mxCell>
        <mxCell id="1aSTl9h5QiMam2j-KgGQ-24" value="" style="curved=1;endArrow=classic;html=1;rounded=0;exitX=0.5;exitY=1;exitDx=0;exitDy=0;entryX=0;entryY=0.75;entryDx=0;entryDy=0;" parent="1" source="1aSTl9h5QiMam2j-KgGQ-17" target="RFGrQ3nGmAbZWkgR2eHo-23" edge="1">
          <mxGeometry width="50" height="50" relative="1" as="geometry">
            <mxPoint x="249" y="2038.5" as="sourcePoint" />
            <mxPoint x="569" y="2008.5" as="targetPoint" />
            <Array as="points">
              <mxPoint x="249" y="2028.5" />
              <mxPoint x="289" y="2048.5" />
              <mxPoint x="669" y="2028.5" />
              <mxPoint x="689" y="1808.5" />
              <mxPoint x="689" y="1548.5" />
              <mxPoint x="649" y="1308.5" />
              <mxPoint x="629" y="1058.5" />
            </Array>
          </mxGeometry>
        </mxCell>
        <mxCell id="1aSTl9h5QiMam2j-KgGQ-26" value="&lt;h1 style=&quot;font-size: 30px;&quot;&gt;Вспомогательная функция для запуска функции&lt;br&gt;zapusk_read_csv&lt;br style=&quot;font-size: 30px;&quot;&gt;&lt;/h1&gt;" style="rounded=1;whiteSpace=wrap;html=1;fillColor=#f5f5f5;strokeColor=#666666;fontSize=30;fontFamily=Gost Type A;fontStyle=0;align=center;verticalAlign=middle;fontColor=#333333;" parent="1" vertex="1">
          <mxGeometry x="429" y="1388.5" width="220" height="160" as="geometry" />
        </mxCell>
        <mxCell id="1aSTl9h5QiMam2j-KgGQ-27" value="&lt;h1 style=&quot;font-size: 30px;&quot;&gt;Функция для запуска чтения CSV файла&lt;br style=&quot;font-size: 30px;&quot;&gt;&lt;/h1&gt;" style="rounded=1;whiteSpace=wrap;html=1;fillColor=#f5f5f5;strokeColor=#666666;fontSize=30;fontFamily=Gost Type A;fontStyle=0;align=center;verticalAlign=middle;fontColor=#333333;" parent="1" vertex="1">
          <mxGeometry x="429" y="1628.5" width="220" height="120" as="geometry" />
        </mxCell>
        <mxCell id="1aSTl9h5QiMam2j-KgGQ-28" value="&lt;h1 style=&quot;font-size: 30px;&quot;&gt;Функция для чтения CSV файла&lt;br style=&quot;font-size: 30px;&quot;&gt;&lt;/h1&gt;" style="rounded=1;whiteSpace=wrap;html=1;fillColor=#f5f5f5;strokeColor=#666666;fontSize=30;fontFamily=Gost Type A;fontStyle=0;align=center;verticalAlign=middle;fontColor=#333333;" parent="1" vertex="1">
          <mxGeometry x="429" y="1848.5" width="220" height="120" as="geometry" />
        </mxCell>
        <mxCell id="1aSTl9h5QiMam2j-KgGQ-31" style="edgeStyle=orthogonalEdgeStyle;rounded=0;orthogonalLoop=1;jettySize=auto;html=1;exitX=0;exitY=0.25;exitDx=0;exitDy=0;entryX=1;entryY=0.25;entryDx=0;entryDy=0;" parent="1" source="frULpJXyhYywBHncMrK_-14" target="1aSTl9h5QiMam2j-KgGQ-34" edge="1">
          <mxGeometry relative="1" as="geometry">
            <mxPoint x="2229" y="1443.5" as="sourcePoint" />
            <mxPoint x="1929" y="1443.5" as="targetPoint" />
            <Array as="points">
              <mxPoint x="2340" y="1223.5" />
              <mxPoint x="2340" y="1443.5" />
            </Array>
          </mxGeometry>
        </mxCell>
        <mxCell id="1aSTl9h5QiMam2j-KgGQ-56" style="edgeStyle=orthogonalEdgeStyle;rounded=0;orthogonalLoop=1;jettySize=auto;html=1;exitX=0.5;exitY=1;exitDx=0;exitDy=0;" parent="1" source="1aSTl9h5QiMam2j-KgGQ-34" target="1aSTl9h5QiMam2j-KgGQ-52" edge="1">
          <mxGeometry relative="1" as="geometry" />
        </mxCell>
        <mxCell id="1aSTl9h5QiMam2j-KgGQ-34" value="&lt;h1 style=&quot;font-size: 30px;&quot;&gt;check&lt;br style=&quot;font-size: 30px;&quot;&gt;&lt;/h1&gt;" style="rounded=1;whiteSpace=wrap;html=1;fillColor=#d5e8d4;strokeColor=#82b366;fontSize=30;fontFamily=Gost Type A;fontStyle=0;align=center;verticalAlign=middle;" parent="1" vertex="1">
          <mxGeometry x="1569" y="1413.5" width="360" height="120" as="geometry" />
        </mxCell>
        <mxCell id="1aSTl9h5QiMam2j-KgGQ-50" value="&lt;h1 style=&quot;font-size: 30px;&quot;&gt;Маршрут для обработки запроса /receiving_data_from_server POST&lt;br style=&quot;font-size: 30px;&quot;&gt;&lt;/h1&gt;" style="rounded=1;whiteSpace=wrap;html=1;fillColor=#f5f5f5;strokeColor=#666666;fontSize=30;fontFamily=Gost Type A;fontStyle=0;align=center;verticalAlign=middle;fontColor=#333333;" parent="1" vertex="1">
          <mxGeometry x="49" y="879.5" width="600" height="80" as="geometry" />
        </mxCell>
        <mxCell id="1aSTl9h5QiMam2j-KgGQ-51" value="&lt;h1 style=&quot;font-size: 30px;&quot;&gt;Маршрут для обработки запроса /check POST&lt;br style=&quot;font-size: 30px;&quot;&gt;&lt;/h1&gt;" style="rounded=1;whiteSpace=wrap;html=1;fillColor=#f5f5f5;strokeColor=#666666;fontSize=30;fontFamily=Gost Type A;fontStyle=0;align=center;verticalAlign=middle;fontColor=#333333;" parent="1" vertex="1">
          <mxGeometry x="1569" y="1338.5" width="740" height="60" as="geometry" />
        </mxCell>
        <mxCell id="1aSTl9h5QiMam2j-KgGQ-57" style="edgeStyle=orthogonalEdgeStyle;rounded=0;orthogonalLoop=1;jettySize=auto;html=1;exitX=0.5;exitY=1;exitDx=0;exitDy=0;" parent="1" source="1aSTl9h5QiMam2j-KgGQ-52" target="1aSTl9h5QiMam2j-KgGQ-54" edge="1">
          <mxGeometry relative="1" as="geometry" />
        </mxCell>
        <mxCell id="1aSTl9h5QiMam2j-KgGQ-52" value="&lt;h1 style=&quot;font-size: 30px;&quot;&gt;process_page_url&lt;br style=&quot;font-size: 30px;&quot;&gt;&lt;/h1&gt;" style="rounded=1;whiteSpace=wrap;html=1;fillColor=#d5e8d4;strokeColor=#82b366;fontSize=30;fontFamily=Gost Type A;fontStyle=0;align=center;verticalAlign=middle;" parent="1" vertex="1">
          <mxGeometry x="1569" y="1633.5" width="360" height="120" as="geometry" />
        </mxCell>
        <mxCell id="1aSTl9h5QiMam2j-KgGQ-53" value="&lt;h1 style=&quot;font-size: 30px;&quot;&gt;Функция для обработки ссылки на страницу&lt;br style=&quot;font-size: 30px;&quot;&gt;&lt;/h1&gt;" style="rounded=1;whiteSpace=wrap;html=1;fillColor=#f5f5f5;strokeColor=#666666;fontSize=30;fontFamily=Gost Type A;fontStyle=0;align=center;verticalAlign=middle;fontColor=#333333;" parent="1" vertex="1">
          <mxGeometry x="1949" y="1633.5" width="360" height="120" as="geometry" />
        </mxCell>
        <mxCell id="1aSTl9h5QiMam2j-KgGQ-62" style="edgeStyle=orthogonalEdgeStyle;rounded=0;orthogonalLoop=1;jettySize=auto;html=1;exitX=0.5;exitY=1;exitDx=0;exitDy=0;entryX=0.5;entryY=0;entryDx=0;entryDy=0;" parent="1" source="1aSTl9h5QiMam2j-KgGQ-54" target="1aSTl9h5QiMam2j-KgGQ-60" edge="1">
          <mxGeometry relative="1" as="geometry" />
        </mxCell>
        <mxCell id="1aSTl9h5QiMam2j-KgGQ-54" value="&lt;h1 style=&quot;font-size: 30px;&quot;&gt;zapusk_update_csv_element&lt;br style=&quot;font-size: 30px;&quot;&gt;&lt;/h1&gt;" style="rounded=1;whiteSpace=wrap;html=1;fillColor=#d5e8d4;strokeColor=#82b366;fontSize=30;fontFamily=Gost Type A;fontStyle=0;align=center;verticalAlign=middle;" parent="1" vertex="1">
          <mxGeometry x="1569" y="1853.5" width="360" height="120" as="geometry" />
        </mxCell>
        <mxCell id="1aSTl9h5QiMam2j-KgGQ-55" value="&lt;h1 style=&quot;font-size: 30px;&quot;&gt;Вспомогательная функция, которая предназначена для запуска update_csv_element&lt;br style=&quot;font-size: 30px;&quot;&gt;&lt;/h1&gt;" style="rounded=1;whiteSpace=wrap;html=1;fillColor=#f5f5f5;strokeColor=#666666;fontSize=30;fontFamily=Gost Type A;fontStyle=0;align=center;verticalAlign=middle;fontColor=#333333;" parent="1" vertex="1">
          <mxGeometry x="1949" y="1853.5" width="360" height="120" as="geometry" />
        </mxCell>
        <mxCell id="1aSTl9h5QiMam2j-KgGQ-69" style="edgeStyle=orthogonalEdgeStyle;rounded=0;orthogonalLoop=1;jettySize=auto;html=1;exitX=0.5;exitY=1;exitDx=0;exitDy=0;" parent="1" source="1aSTl9h5QiMam2j-KgGQ-60" target="1aSTl9h5QiMam2j-KgGQ-63" edge="1">
          <mxGeometry relative="1" as="geometry" />
        </mxCell>
        <mxCell id="1aSTl9h5QiMam2j-KgGQ-60" value="&lt;h1 style=&quot;font-size: 30px;&quot;&gt;update_csv_element&lt;br style=&quot;font-size: 30px;&quot;&gt;&lt;/h1&gt;" style="rounded=1;whiteSpace=wrap;html=1;fillColor=#d5e8d4;strokeColor=#82b366;fontSize=30;fontFamily=Gost Type A;fontStyle=0;align=center;verticalAlign=middle;" parent="1" vertex="1">
          <mxGeometry x="1569" y="2073.5" width="360" height="120" as="geometry" />
        </mxCell>
        <mxCell id="1aSTl9h5QiMam2j-KgGQ-61" value="&lt;h1 style=&quot;font-size: 30px;&quot;&gt;Функция, которая обновляет значение элемента (а именно количества) в CSV-файле&lt;br style=&quot;font-size: 30px;&quot;&gt;&lt;/h1&gt;" style="rounded=1;whiteSpace=wrap;html=1;fillColor=#f5f5f5;strokeColor=#666666;fontSize=30;fontFamily=Gost Type A;fontStyle=0;align=center;verticalAlign=middle;fontColor=#333333;" parent="1" vertex="1">
          <mxGeometry x="1949" y="2073.5" width="360" height="120" as="geometry" />
        </mxCell>
        <mxCell id="1aSTl9h5QiMam2j-KgGQ-70" style="edgeStyle=orthogonalEdgeStyle;rounded=0;orthogonalLoop=1;jettySize=auto;html=1;exitX=0.5;exitY=1;exitDx=0;exitDy=0;" parent="1" source="1aSTl9h5QiMam2j-KgGQ-63" target="1aSTl9h5QiMam2j-KgGQ-64" edge="1">
          <mxGeometry relative="1" as="geometry" />
        </mxCell>
        <mxCell id="1aSTl9h5QiMam2j-KgGQ-63" value="&lt;h1 style=&quot;font-size: 30px;&quot;&gt;over_zapusk_read_csv&lt;br style=&quot;font-size: 30px;&quot;&gt;&lt;/h1&gt;" style="rounded=1;whiteSpace=wrap;html=1;fillColor=#d5e8d4;strokeColor=#82b366;fontSize=30;fontFamily=Gost Type A;fontStyle=0;align=center;verticalAlign=middle;" parent="1" vertex="1">
          <mxGeometry x="1569" y="2293.5" width="360" height="120" as="geometry" />
        </mxCell>
        <mxCell id="1aSTl9h5QiMam2j-KgGQ-71" style="edgeStyle=orthogonalEdgeStyle;rounded=0;orthogonalLoop=1;jettySize=auto;html=1;exitX=0.5;exitY=1;exitDx=0;exitDy=0;" parent="1" source="1aSTl9h5QiMam2j-KgGQ-64" target="1aSTl9h5QiMam2j-KgGQ-65" edge="1">
          <mxGeometry relative="1" as="geometry" />
        </mxCell>
        <mxCell id="1aSTl9h5QiMam2j-KgGQ-64" value="&lt;h1 style=&quot;font-size: 30px;&quot;&gt;zapusk_read_csv&lt;br style=&quot;font-size: 30px;&quot;&gt;&lt;/h1&gt;" style="rounded=1;whiteSpace=wrap;html=1;fillColor=#d5e8d4;strokeColor=#82b366;fontSize=30;fontFamily=Gost Type A;fontStyle=0;align=center;verticalAlign=middle;" parent="1" vertex="1">
          <mxGeometry x="1569" y="2513.5" width="360" height="120" as="geometry" />
        </mxCell>
        <mxCell id="1aSTl9h5QiMam2j-KgGQ-65" value="&lt;h1 style=&quot;font-size: 30px;&quot;&gt;read_csv&lt;br style=&quot;font-size: 30px;&quot;&gt;&lt;/h1&gt;" style="rounded=1;whiteSpace=wrap;html=1;fillColor=#d5e8d4;strokeColor=#82b366;fontSize=30;fontFamily=Gost Type A;fontStyle=0;align=center;verticalAlign=middle;" parent="1" vertex="1">
          <mxGeometry x="1569" y="2733.5" width="360" height="120" as="geometry" />
        </mxCell>
        <mxCell id="1aSTl9h5QiMam2j-KgGQ-66" value="&lt;h1 style=&quot;font-size: 30px;&quot;&gt;Вспомогательная функция для запуска функции&lt;br&gt;zapusk_read_csv&lt;br style=&quot;font-size: 30px;&quot;&gt;&lt;/h1&gt;" style="rounded=1;whiteSpace=wrap;html=1;fillColor=#f5f5f5;strokeColor=#666666;fontSize=30;fontFamily=Gost Type A;fontStyle=0;align=center;verticalAlign=middle;fontColor=#333333;" parent="1" vertex="1">
          <mxGeometry x="1949" y="2293.5" width="360" height="120" as="geometry" />
        </mxCell>
        <mxCell id="1aSTl9h5QiMam2j-KgGQ-67" value="&lt;h1 style=&quot;font-size: 30px;&quot;&gt;Функция для запуска чтения CSV файла&lt;br style=&quot;font-size: 30px;&quot;&gt;&lt;/h1&gt;" style="rounded=1;whiteSpace=wrap;html=1;fillColor=#f5f5f5;strokeColor=#666666;fontSize=30;fontFamily=Gost Type A;fontStyle=0;align=center;verticalAlign=middle;fontColor=#333333;" parent="1" vertex="1">
          <mxGeometry x="1949" y="2513.5" width="360" height="120" as="geometry" />
        </mxCell>
        <mxCell id="1aSTl9h5QiMam2j-KgGQ-68" value="&lt;h1 style=&quot;font-size: 30px;&quot;&gt;Функция для чтения CSV файла&lt;br style=&quot;font-size: 30px;&quot;&gt;&lt;/h1&gt;" style="rounded=1;whiteSpace=wrap;html=1;fillColor=#f5f5f5;strokeColor=#666666;fontSize=30;fontFamily=Gost Type A;fontStyle=0;align=center;verticalAlign=middle;fontColor=#333333;" parent="1" vertex="1">
          <mxGeometry x="1949" y="2733.5" width="360" height="120" as="geometry" />
        </mxCell>
        <mxCell id="1aSTl9h5QiMam2j-KgGQ-72" value="" style="curved=1;endArrow=classic;html=1;rounded=0;exitX=0.5;exitY=1;exitDx=0;exitDy=0;entryX=0;entryY=0.75;entryDx=0;entryDy=0;" parent="1" source="1aSTl9h5QiMam2j-KgGQ-65" target="frULpJXyhYywBHncMrK_-14" edge="1">
          <mxGeometry width="50" height="50" relative="1" as="geometry">
            <mxPoint x="1809" y="3003.5" as="sourcePoint" />
            <mxPoint x="2209" y="2913.5" as="targetPoint" />
            <Array as="points">
              <mxPoint x="1749" y="2973.5" />
              <mxPoint x="2169" y="2953.5" />
              <mxPoint x="2429" y="2833.5" />
              <mxPoint x="2329" y="1533.5" />
            </Array>
          </mxGeometry>
        </mxCell>
        <mxCell id="LH-L8dSxY2G5V-VSYJMG-1" value="&lt;h1 style=&quot;font-size: 30px;&quot;&gt;class=&quot;grid-item&quot; - кнопки ячеек/контейнеров&lt;/h1&gt;" style="rounded=1;whiteSpace=wrap;html=1;fillColor=#f5f5f5;fontColor=#333333;strokeColor=#666666;fontSize=30;fontFamily=Gost Type A;fontStyle=0;align=center;verticalAlign=middle;" vertex="1" parent="1">
          <mxGeometry x="709" y="166" width="731" height="120" as="geometry" />
        </mxCell>
        <mxCell id="LH-L8dSxY2G5V-VSYJMG-4" value="&lt;h1 style=&quot;font-size: 30px;&quot;&gt;class=&quot;dynamic-button&quot; - кнопки &quot;Взять&quot; / &quot;Положить&quot;&lt;/h1&gt;" style="rounded=1;whiteSpace=wrap;html=1;fillColor=#f5f5f5;fontColor=#333333;strokeColor=#666666;fontSize=30;fontFamily=Gost Type A;fontStyle=0;align=center;verticalAlign=middle;" vertex="1" parent="1">
          <mxGeometry x="1569" y="166" width="731" height="120" as="geometry" />
        </mxCell>
        <mxCell id="LH-L8dSxY2G5V-VSYJMG-5" value="&lt;h1 style=&quot;font-size: 30px;&quot;&gt;id=&quot;btn-confirm&quot; - кнопка &quot;Готово (Взять)&quot; / &quot;Готово (Положить)&quot;&lt;br&gt;&lt;/h1&gt;" style="rounded=1;whiteSpace=wrap;html=1;fillColor=#f5f5f5;fontColor=#333333;strokeColor=#666666;fontSize=30;fontFamily=Gost Type A;fontStyle=0;align=center;verticalAlign=middle;" vertex="1" parent="1">
          <mxGeometry x="2429" y="166" width="731" height="120" as="geometry" />
        </mxCell>
        <mxCell id="LH-L8dSxY2G5V-VSYJMG-6" value="&lt;h1 style=&quot;&quot;&gt;&lt;font style=&quot;font-size: 40px;&quot;&gt;Страницы с содержимым полок/стеллажа 1&lt;/font&gt;&lt;/h1&gt;" style="rounded=1;whiteSpace=wrap;html=1;fontSize=30;fontFamily=Gost Type A;fontStyle=0;align=center;verticalAlign=middle;" vertex="1" parent="1">
          <mxGeometry x="718" y="26.5" width="2442" height="120" as="geometry" />
        </mxCell>
        <mxCell id="LH-L8dSxY2G5V-VSYJMG-7" value="&lt;h1 style=&quot;&quot;&gt;&lt;font style=&quot;font-size: 40px;&quot;&gt;Страница “Найти крепёж” (/founder)&lt;/font&gt;&lt;/h1&gt;" style="rounded=1;whiteSpace=wrap;html=1;fontSize=30;fontFamily=Gost Type A;fontStyle=0;align=center;verticalAlign=middle;" vertex="1" parent="1">
          <mxGeometry x="3235.5" y="26.5" width="1684.5" height="120" as="geometry" />
        </mxCell>
        <mxCell id="LH-L8dSxY2G5V-VSYJMG-8" style="edgeStyle=orthogonalEdgeStyle;rounded=0;orthogonalLoop=1;jettySize=auto;html=1;exitX=0.5;exitY=1;exitDx=0;exitDy=0;" edge="1" parent="1" source="LH-L8dSxY2G5V-VSYJMG-9" target="LH-L8dSxY2G5V-VSYJMG-11">
          <mxGeometry relative="1" as="geometry" />
        </mxCell>
        <mxCell id="LH-L8dSxY2G5V-VSYJMG-9" value="&lt;h1 style=&quot;font-size: 30px;&quot;&gt;Происходит нажатие на кнопку&lt;br&gt;с id=&quot;apply-filter&quot;&lt;br&gt;&lt;/h1&gt;" style="rounded=1;whiteSpace=wrap;html=1;fillColor=#f5f5f5;fontColor=#333333;strokeColor=#666666;fontSize=30;fontFamily=Gost Type A;fontStyle=0;align=center;verticalAlign=middle;" vertex="1" parent="1">
          <mxGeometry x="3280" y="308.5" width="360" height="120" as="geometry" />
        </mxCell>
        <mxCell id="LH-L8dSxY2G5V-VSYJMG-10" style="edgeStyle=orthogonalEdgeStyle;rounded=0;orthogonalLoop=1;jettySize=auto;html=1;exitX=0.5;exitY=1;exitDx=0;exitDy=0;entryX=0.5;entryY=0;entryDx=0;entryDy=0;" edge="1" parent="1" source="LH-L8dSxY2G5V-VSYJMG-11" target="LH-L8dSxY2G5V-VSYJMG-14">
          <mxGeometry relative="1" as="geometry" />
        </mxCell>
        <mxCell id="LH-L8dSxY2G5V-VSYJMG-11" value="&lt;h1 style=&quot;font-size: 30px;&quot;&gt;displayData&lt;br style=&quot;font-size: 30px;&quot;&gt;&lt;/h1&gt;" style="rounded=1;whiteSpace=wrap;html=1;fillColor=#fff2cc;strokeColor=#d6b656;fontSize=30;fontFamily=Gost Type A;fontStyle=0;align=center;verticalAlign=middle;" vertex="1" parent="1">
          <mxGeometry x="3280" y="528.5" width="360" height="120" as="geometry" />
        </mxCell>
        <mxCell id="LH-L8dSxY2G5V-VSYJMG-12" value="&lt;h1 style=&quot;font-size: 30px;&quot;&gt;Функция для вывода данных&lt;/h1&gt;" style="rounded=1;whiteSpace=wrap;html=1;fillColor=#dae8fc;strokeColor=#6c8ebf;fontSize=30;fontFamily=Gost Type A;fontStyle=0;align=center;verticalAlign=middle;" vertex="1" parent="1">
          <mxGeometry x="3660" y="528.5" width="360" height="120" as="geometry" />
        </mxCell>
        <mxCell id="LH-L8dSxY2G5V-VSYJMG-13" style="edgeStyle=orthogonalEdgeStyle;rounded=0;orthogonalLoop=1;jettySize=auto;html=1;exitX=0.5;exitY=1;exitDx=0;exitDy=0;entryX=0.5;entryY=0;entryDx=0;entryDy=0;" edge="1" parent="1" source="LH-L8dSxY2G5V-VSYJMG-14" target="LH-L8dSxY2G5V-VSYJMG-16">
          <mxGeometry relative="1" as="geometry" />
        </mxCell>
        <mxCell id="LH-L8dSxY2G5V-VSYJMG-14" value="&lt;h1 style=&quot;font-size: 30px;&quot;&gt;filter&lt;br style=&quot;font-size: 30px;&quot;&gt;&lt;/h1&gt;" style="rounded=1;whiteSpace=wrap;html=1;fillColor=#fff2cc;strokeColor=#d6b656;fontSize=30;fontFamily=Gost Type A;fontStyle=0;align=center;verticalAlign=middle;" vertex="1" parent="1">
          <mxGeometry x="3280" y="748.5" width="360" height="120" as="geometry" />
        </mxCell>
        <mxCell id="LH-L8dSxY2G5V-VSYJMG-15" value="&lt;h1 style=&quot;border-color: var(--border-color); font-size: 30px;&quot;&gt;Функция для отправки и получения данных&lt;/h1&gt;" style="rounded=1;whiteSpace=wrap;html=1;fillColor=#dae8fc;strokeColor=#6c8ebf;fontSize=30;fontFamily=Gost Type A;fontStyle=0;align=center;verticalAlign=middle;" vertex="1" parent="1">
          <mxGeometry x="3660" y="748.5" width="360" height="120" as="geometry" />
        </mxCell>
        <mxCell id="LH-L8dSxY2G5V-VSYJMG-16" value="&lt;h1 style=&quot;font-size: 30px;&quot;&gt;upgrade_BlockInfo&lt;br style=&quot;font-size: 30px;&quot;&gt;&lt;/h1&gt;" style="rounded=1;whiteSpace=wrap;html=1;fillColor=#fff2cc;strokeColor=#d6b656;fontSize=30;fontFamily=Gost Type A;fontStyle=0;align=center;verticalAlign=middle;" vertex="1" parent="1">
          <mxGeometry x="3280" y="968.5" width="360" height="120" as="geometry" />
        </mxCell>
        <mxCell id="LH-L8dSxY2G5V-VSYJMG-17" value="&lt;h1 style=&quot;border-color: var(--border-color); font-size: 30px;&quot;&gt;Функция для обновления информации о блоке&lt;/h1&gt;" style="rounded=1;whiteSpace=wrap;html=1;fillColor=#dae8fc;strokeColor=#6c8ebf;fontSize=30;fontFamily=Gost Type A;fontStyle=0;align=center;verticalAlign=middle;" vertex="1" parent="1">
          <mxGeometry x="3660" y="968.5" width="360" height="120" as="geometry" />
        </mxCell>
        <mxCell id="LH-L8dSxY2G5V-VSYJMG-18" value="&lt;h1 style=&quot;font-size: 30px;&quot;&gt;id=&quot;apply-filter&quot; - кнопка &quot;Найти&quot;&lt;br&gt;&lt;/h1&gt;" style="rounded=1;whiteSpace=wrap;html=1;fillColor=#f5f5f5;fontColor=#333333;strokeColor=#666666;fontSize=30;fontFamily=Gost Type A;fontStyle=0;align=center;verticalAlign=middle;" vertex="1" parent="1">
          <mxGeometry x="3280" y="166.5" width="731" height="120" as="geometry" />
        </mxCell>
        <mxCell id="LH-L8dSxY2G5V-VSYJMG-19" style="edgeStyle=orthogonalEdgeStyle;rounded=0;orthogonalLoop=1;jettySize=auto;html=1;exitX=0.5;exitY=1;exitDx=0;exitDy=0;entryX=0.5;entryY=0;entryDx=0;entryDy=0;" edge="1" parent="1" source="LH-L8dSxY2G5V-VSYJMG-20" target="q40bGPLpGO4sP_23NxMf-2">
          <mxGeometry relative="1" as="geometry">
            <mxPoint x="4340" y="960" as="targetPoint" />
          </mxGeometry>
        </mxCell>
        <mxCell id="LH-L8dSxY2G5V-VSYJMG-20" value="&lt;h1 style=&quot;font-size: 30px;&quot;&gt;check&lt;br style=&quot;font-size: 30px;&quot;&gt;&lt;/h1&gt;" style="rounded=1;whiteSpace=wrap;html=1;fillColor=#d5e8d4;strokeColor=#82b366;fontSize=30;fontFamily=Gost Type A;fontStyle=0;align=center;verticalAlign=middle;" vertex="1" parent="1">
          <mxGeometry x="4160" y="748.5" width="360" height="120" as="geometry" />
        </mxCell>
        <mxCell id="LH-L8dSxY2G5V-VSYJMG-21" value="&lt;h1 style=&quot;font-size: 30px;&quot;&gt;Маршрут для обработки запроса&amp;nbsp;/founder POST&lt;br style=&quot;font-size: 30px;&quot;&gt;&lt;/h1&gt;" style="rounded=1;whiteSpace=wrap;html=1;fillColor=#f5f5f5;strokeColor=#666666;fontSize=30;fontFamily=Gost Type A;fontStyle=0;align=center;verticalAlign=middle;fontColor=#333333;" vertex="1" parent="1">
          <mxGeometry x="4160" y="673.5" width="740" height="60" as="geometry" />
        </mxCell>
        <mxCell id="LH-L8dSxY2G5V-VSYJMG-31" style="edgeStyle=orthogonalEdgeStyle;rounded=0;orthogonalLoop=1;jettySize=auto;html=1;exitX=0.5;exitY=1;exitDx=0;exitDy=0;" edge="1" parent="1" source="LH-L8dSxY2G5V-VSYJMG-32" target="LH-L8dSxY2G5V-VSYJMG-34">
          <mxGeometry relative="1" as="geometry" />
        </mxCell>
        <mxCell id="LH-L8dSxY2G5V-VSYJMG-32" value="&lt;h1 style=&quot;font-size: 30px;&quot;&gt;over_zapusk_read_csv&lt;br style=&quot;font-size: 30px;&quot;&gt;&lt;/h1&gt;" style="rounded=1;whiteSpace=wrap;html=1;fillColor=#d5e8d4;strokeColor=#82b366;fontSize=30;fontFamily=Gost Type A;fontStyle=0;align=center;verticalAlign=middle;" vertex="1" parent="1">
          <mxGeometry x="4160" y="1188.5" width="360" height="120" as="geometry" />
        </mxCell>
        <mxCell id="LH-L8dSxY2G5V-VSYJMG-33" style="edgeStyle=orthogonalEdgeStyle;rounded=0;orthogonalLoop=1;jettySize=auto;html=1;exitX=0.5;exitY=1;exitDx=0;exitDy=0;" edge="1" parent="1" source="LH-L8dSxY2G5V-VSYJMG-34" target="LH-L8dSxY2G5V-VSYJMG-35">
          <mxGeometry relative="1" as="geometry" />
        </mxCell>
        <mxCell id="LH-L8dSxY2G5V-VSYJMG-34" value="&lt;h1 style=&quot;font-size: 30px;&quot;&gt;zapusk_read_csv&lt;br style=&quot;font-size: 30px;&quot;&gt;&lt;/h1&gt;" style="rounded=1;whiteSpace=wrap;html=1;fillColor=#d5e8d4;strokeColor=#82b366;fontSize=30;fontFamily=Gost Type A;fontStyle=0;align=center;verticalAlign=middle;" vertex="1" parent="1">
          <mxGeometry x="4160" y="1408.5" width="360" height="120" as="geometry" />
        </mxCell>
        <mxCell id="LH-L8dSxY2G5V-VSYJMG-35" value="&lt;h1 style=&quot;font-size: 30px;&quot;&gt;read_csv&lt;br style=&quot;font-size: 30px;&quot;&gt;&lt;/h1&gt;" style="rounded=1;whiteSpace=wrap;html=1;fillColor=#d5e8d4;strokeColor=#82b366;fontSize=30;fontFamily=Gost Type A;fontStyle=0;align=center;verticalAlign=middle;" vertex="1" parent="1">
          <mxGeometry x="4160" y="1628.5" width="360" height="120" as="geometry" />
        </mxCell>
        <mxCell id="LH-L8dSxY2G5V-VSYJMG-36" value="&lt;h1 style=&quot;font-size: 30px;&quot;&gt;Вспомогательная функция для запуска функции&lt;br&gt;zapusk_read_csv&lt;br style=&quot;font-size: 30px;&quot;&gt;&lt;/h1&gt;" style="rounded=1;whiteSpace=wrap;html=1;fillColor=#f5f5f5;strokeColor=#666666;fontSize=30;fontFamily=Gost Type A;fontStyle=0;align=center;verticalAlign=middle;fontColor=#333333;" vertex="1" parent="1">
          <mxGeometry x="4540" y="1188.5" width="360" height="120" as="geometry" />
        </mxCell>
        <mxCell id="LH-L8dSxY2G5V-VSYJMG-37" value="&lt;h1 style=&quot;font-size: 30px;&quot;&gt;Функция для запуска чтения CSV файла&lt;br style=&quot;font-size: 30px;&quot;&gt;&lt;/h1&gt;" style="rounded=1;whiteSpace=wrap;html=1;fillColor=#f5f5f5;strokeColor=#666666;fontSize=30;fontFamily=Gost Type A;fontStyle=0;align=center;verticalAlign=middle;fontColor=#333333;" vertex="1" parent="1">
          <mxGeometry x="4540" y="1408.5" width="360" height="120" as="geometry" />
        </mxCell>
        <mxCell id="LH-L8dSxY2G5V-VSYJMG-38" value="&lt;h1 style=&quot;font-size: 30px;&quot;&gt;Функция для чтения CSV файла&lt;br style=&quot;font-size: 30px;&quot;&gt;&lt;/h1&gt;" style="rounded=1;whiteSpace=wrap;html=1;fillColor=#f5f5f5;strokeColor=#666666;fontSize=30;fontFamily=Gost Type A;fontStyle=0;align=center;verticalAlign=middle;fontColor=#333333;" vertex="1" parent="1">
          <mxGeometry x="4540" y="1628.5" width="360" height="120" as="geometry" />
        </mxCell>
        <mxCell id="q40bGPLpGO4sP_23NxMf-1" style="edgeStyle=orthogonalEdgeStyle;rounded=0;orthogonalLoop=1;jettySize=auto;html=1;exitX=1;exitY=0.25;exitDx=0;exitDy=0;entryX=0;entryY=0.25;entryDx=0;entryDy=0;" edge="1" parent="1" source="LH-L8dSxY2G5V-VSYJMG-15" target="LH-L8dSxY2G5V-VSYJMG-20">
          <mxGeometry relative="1" as="geometry">
            <mxPoint x="3506" y="890" as="sourcePoint" />
            <mxPoint x="3506" y="990" as="targetPoint" />
          </mxGeometry>
        </mxCell>
        <mxCell id="q40bGPLpGO4sP_23NxMf-2" value="&lt;h1 style=&quot;font-size: 30px;&quot;&gt;over_zapusk_read_csv&lt;br style=&quot;font-size: 30px;&quot;&gt;&lt;/h1&gt;" style="rounded=1;whiteSpace=wrap;html=1;fillColor=#d5e8d4;strokeColor=#82b366;fontSize=30;fontFamily=Gost Type A;fontStyle=0;align=center;verticalAlign=middle;" vertex="1" parent="1">
          <mxGeometry x="4160" y="968.5" width="360" height="120" as="geometry" />
        </mxCell>
        <mxCell id="q40bGPLpGO4sP_23NxMf-3" value="&lt;h1 style=&quot;font-size: 30px;&quot;&gt;Вспомогательная функция для запуска функции&lt;br&gt;zapusk_read_csv&lt;br style=&quot;font-size: 30px;&quot;&gt;&lt;/h1&gt;" style="rounded=1;whiteSpace=wrap;html=1;fillColor=#f5f5f5;strokeColor=#666666;fontSize=30;fontFamily=Gost Type A;fontStyle=0;align=center;verticalAlign=middle;fontColor=#333333;" vertex="1" parent="1">
          <mxGeometry x="4540" y="957" width="360" height="143" as="geometry" />
        </mxCell>
        <mxCell id="q40bGPLpGO4sP_23NxMf-5" value="" style="edgeStyle=orthogonalEdgeStyle;rounded=0;orthogonalLoop=1;jettySize=auto;html=1;exitX=0.5;exitY=1;exitDx=0;exitDy=0;entryX=0.5;entryY=0;entryDx=0;entryDy=0;" edge="1" parent="1" source="q40bGPLpGO4sP_23NxMf-2" target="LH-L8dSxY2G5V-VSYJMG-32">
          <mxGeometry relative="1" as="geometry">
            <mxPoint x="4360" y="1029" as="sourcePoint" />
            <mxPoint x="4340" y="1188.5" as="targetPoint" />
          </mxGeometry>
        </mxCell>
        <mxCell id="q40bGPLpGO4sP_23NxMf-6" value="" style="curved=1;endArrow=classic;html=1;rounded=0;exitX=0.5;exitY=1;exitDx=0;exitDy=0;entryX=1;entryY=0.75;entryDx=0;entryDy=0;" edge="1" parent="1" source="LH-L8dSxY2G5V-VSYJMG-35" target="LH-L8dSxY2G5V-VSYJMG-15">
          <mxGeometry width="50" height="50" relative="1" as="geometry">
            <mxPoint x="4080" y="1570" as="sourcePoint" />
            <mxPoint x="4130" y="1520" as="targetPoint" />
            <Array as="points">
              <mxPoint x="4360" y="1780" />
              <mxPoint x="4100" y="1860" />
              <mxPoint x="4000" y="1660" />
              <mxPoint x="4020" y="1480" />
              <mxPoint x="4120" y="840" />
            </Array>
          </mxGeometry>
        </mxCell>
      </root>
    </mxGraphModel>
  </diagram>
</mxfile>
